<svg width="156" height="53" viewBox="0 0 156 53" fill="none" xmlns="http://www.w3.org/2000/svg">
<rect x="0.5" y="0.5" width="155" height="52" rx="26" stroke="white" stroke-opacity="0.6"></rect>
<path d="M42.0276 30.1056C44.1653 30.1056 45.8147 28.8388 46.0127 27.031H44.6271C44.482 28.113 43.3867 28.8916 42.0144 28.8916C40.2197 28.8916 38.9266 27.6644 38.9266 25.3815C38.9266 23.0987 40.2197 21.8715 42.0144 21.8715C43.3603 21.8715 44.4424 22.65 44.6007 23.7321H46.039C45.7883 21.9242 44.1257 20.6575 42.0276 20.6575C39.6787 20.6575 37.5146 22.2145 37.5146 25.3815C37.5146 28.5485 39.6523 30.1056 42.0276 30.1056ZM51.8824 30.1056C54.5083 30.1056 56.4613 28.0998 56.4613 25.3815C56.4613 22.6632 54.5083 20.6575 51.8824 20.6575C49.2432 20.6575 47.2903 22.6632 47.2903 25.3815C47.2903 28.0998 49.2432 30.1056 51.8824 30.1056ZM51.8824 28.8916C50.0482 28.8916 48.689 27.4005 48.689 25.3815C48.689 23.3626 50.0482 21.8715 51.8824 21.8715C53.7166 21.8715 55.0625 23.3626 55.0625 25.3815C55.0625 27.4005 53.7166 28.8916 51.8824 28.8916ZM58.2613 30H59.6337V22.9007L64.0938 30H65.6113V20.763H64.239V27.8755L59.792 20.763H58.2613V30ZM69.916 30H71.2884V21.977H74.1782V20.763H67.0262V21.977H69.916V30ZM80.588 30H82.0132L78.3843 20.763H77.1176L73.4887 30H74.9007L75.7848 27.6512H79.7039L80.588 30ZM76.2466 26.4504L77.7509 22.4785L79.2553 26.4504H76.2466ZM87.1171 30.1056C89.2548 30.1056 90.9043 28.8388 91.1022 27.031H89.7167C89.5715 28.113 88.4763 28.8916 87.1039 28.8916C85.3093 28.8916 84.0161 27.6644 84.0161 25.3815C84.0161 23.0987 85.3093 21.8715 87.1039 21.8715C88.4499 21.8715 89.5319 22.65 89.6903 23.7321H91.1286C90.8779 21.9242 89.2152 20.6575 87.1171 20.6575C84.7683 20.6575 82.6042 22.2145 82.6042 25.3815C82.6042 28.5485 84.7419 30.1056 87.1171 30.1056ZM94.7971 30H96.1694V21.977H99.0593V20.763H91.9072V21.977H94.7971V30ZM107.214 30.1056C109.338 30.1056 110.763 28.8784 110.763 26.7671V20.763H109.444V26.8066C109.444 28.1262 108.546 28.8784 107.214 28.8784C105.894 28.8784 104.997 28.1262 104.997 26.8066V20.763H103.677V26.7671C103.677 28.8784 105.102 30.1056 107.214 30.1056ZM115.782 30.1056C117.761 30.1056 119.187 29.1159 119.187 27.4268C119.187 23.9036 113.921 25.3947 113.921 23.1514C113.921 22.3729 114.594 21.8715 115.703 21.8715C116.838 21.8715 117.577 22.4917 117.669 23.4417H119.002C118.883 21.7527 117.59 20.6575 115.703 20.6575C113.842 20.6575 112.549 21.6735 112.549 23.1514C112.549 26.5559 117.788 25.2232 117.788 27.44C117.788 28.4429 116.943 28.8916 115.782 28.8916C114.476 28.8916 113.697 28.1262 113.592 26.9386H112.259C112.364 28.852 113.697 30.1056 115.782 30.1056Z" fill="white"></path>
</svg>
