<svg width="131" height="30" viewBox="0 0 131 30" fill="none" xmlns="http://www.w3.org/2000/svg">
<g clip-path="url(#clip0_1545_952)">
<path d="M4.692 12.6924C2.348 12.6924 0.397995 14.5727 0.397995 17.0514L0.397994 30.0001L4.692 30.0001L4.692 16.624L16.211 16.624L16.211 12.6924L4.692 12.6924Z" fill="white"/>
<path d="M0.397995 -8.39346e-07L0.397994 12.6923L4.846 12.6923L4.846 3.99895L19.6 3.99895L19.6 2.33911e-07L0.397995 -8.39346e-07Z" fill="white"/>
<path d="M4.692 12.6924C2.348 12.6924 0.397995 14.5727 0.397995 17.0514L0.397994 30.0001L4.692 30.0001L4.692 16.624L16.211 16.624L16.211 12.6924L4.692 12.6924Z" fill="white"/>
<path d="M0.397995 -8.39346e-07L0.397994 12.6923L4.846 12.6923L4.846 3.99895L19.6 3.99895L19.6 2.33911e-07L0.397995 -8.39346e-07Z" fill="white"/>
<path d="M90.701 -5.34985e-07L81.7227 -1.03681e-06L81.7227 12.5143L86.0657 12.5143L86.0657 3.94286L90.4504 3.94286C95.8792 3.94286 100.974 7.07143 100.974 15C100.974 22.9286 95.8792 26.0571 90.4504 26.0571L86.0657 26.0571L86.0657 12.6429C83.695 12.6429 81.7227 14.5714 81.7227 17.0143L81.7227 30L90.701 30C98.8442 30 105.442 24.7714 105.442 15C105.442 5.22857 98.8442 -7.98357e-08 90.701 -5.34985e-07Z" fill="white"/>
<path d="M35.3928 -6.42741e-07C27.734 -1.07082e-06 21.875 5.2014 20.818 12.5732L25.358 12.5732C26.309 7.43003 30.273 3.85475 35.3928 3.85475C41.283 3.85475 45.6052 8.58939 45.6052 15C45.6052 21.4106 41.283 26.1453 35.3928 26.1453C29.503 26.1453 25.138 21.4106 25.138 15C25.137 14.2288 25.203 13.459 25.334 12.6989L25.138 12.6989C22.796 12.6989 20.57 14.9162 20.739 16.7849C21.54 24.4948 27.514 30 35.3928 30C43.8255 30 50.097 23.6313 50.097 15C50.097 6.36872 43.8255 -1.7141e-07 35.3928 -6.42741e-07Z" fill="white"/>
<path d="M72.0436 14.1857C74.4795 12.9429 76.0753 10.9929 76.0753 8.14286C76.0753 2.78571 72.6316 6.89491e-08 66.71 -2.62028e-07L54.6147 -9.38073e-07L54.6147 12.5143L58.9825 12.5143L58.9825 3.85714L66.584 3.85714C70.4057 3.85714 71.7076 5.63571 71.7076 8.14286C71.7076 10.65 70.4057 12.6429 66.584 12.6429L58.9825 12.6429C56.5983 12.6429 54.6147 14.5714 54.6147 17.0143L54.6147 30L58.9825 30L58.9825 16.5857L66.9199 16.5857C70.0277 16.5857 71.2037 18.9429 71.3717 22.4143L71.7076 30L75.9494 30L75.6134 21.8571C75.4454 17.7857 74.1855 15.4714 72.0436 14.1857Z" fill="white"/>
<path d="M108.831 19.9441L112.96 19.9441C113.287 23.7151 115.698 26.1453 119.745 26.1453C123.342 26.1453 125.959 24.7207 125.959 21.5363C125.959 14.4972 109.73 18.7291 109.73 7.91899C109.73 3.22626 113.736 -7.93868e-07 119.5 -4.71716e-07C125.345 -1.44994e-07 129.351 3.47765 129.719 8.84078L125.591 8.84078C125.305 5.82402 123.015 3.85475 119.5 3.85475C116.066 3.85475 113.982 5.44693 113.982 7.91899C113.982 15.0419 130.292 10.3073 130.292 21.4944C130.292 26.8575 125.877 30 119.745 30C113.287 30 109.158 26.0196 108.831 19.9441Z" fill="white"/>
</g>
<defs>
<clipPath id="clip0_1545_952">
<rect width="30" height="131" fill="white" transform="translate(131) rotate(90)"/>
</clipPath>
</defs>
</svg>
